*
%LPD*%
%LNM3V9-C~1*%
%FSLAX24Y24*%
%MOIN*%
%SRX1Y1I0.0J0.0*%
%AD*%
%AMCUSTOM10*
1,1,0.024000,0.000000,0.023000*
1,1,0.024000,0.000000,-0.023000*
20,1,0.024000,0.000000,-0.023000,0.000000,0.023000,0.000000*
%
%AMCUSTOM11*
4,1,4.000000,0.059060,-0.029530,0.059060,0.029530,-0.059060,0.029530,-0.059060,-0.029530,0.059060,-0.029530,0.000000*
20,1,0.000040,0.059060,-0.029530,0.059060,0.029530,0.000000*
20,1,0.000040,0.059060,0.029530,-0.059060,0.029530,0.000000*
20,1,0.000040,-0.059060,0.029530,-0.059060,-0.029530,0.000000*
20,1,0.000040,-0.059060,-0.029530,0.059060,-0.029530,0.000000*
%
%AMCUSTOM14*
1,1,0.016660,-0.005420,0.020840*
1,1,0.016660,0.005420,0.020840*
1,1,0.016660,-0.005420,-0.020840*
1,1,0.016660,0.005420,-0.020840*
20,1,0.027500,0.000000,-0.020840,0.000000,0.020840,0.000000*
20,1,0.010840,0.000000,-0.029170,0.000000,0.029170,0.000000*
%
%AMCUSTOM15*
1,1,0.016660,-0.020840,0.005420*
1,1,0.016660,0.020840,0.005420*
1,1,0.016660,-0.020840,-0.005420*
1,1,0.016660,0.020840,-0.005420*
20,1,0.010840,-0.029170,0.000000,0.029170,0.000000,0.000000*
20,1,0.027500,-0.020840,0.000000,0.020840,0.000000,0.000000*
%
%AMCUSTOM16*
1,1,0.016660,-0.010000,0.007510*
1,1,0.016660,0.010000,0.007510*
1,1,0.016660,-0.010000,-0.007510*
1,1,0.016660,0.010000,-0.007510*
20,1,0.015010,-0.018330,0.000000,0.018330,0.000000,0.000000*
20,1,0.020000,0.000000,-0.015835,0.000000,0.015835,0.000000*
%
%ADD10CUSTOM10*%
%ADD11CUSTOM11*%
%ADD12R,0.098430X0.047240*%
%ADD13R,0.047240X0.047240*%
%ADD14CUSTOM14*%
%ADD15CUSTOM15*%
%ADD16CUSTOM16*%
%ADD17C,0.011810*%
%ADD19C,0.003940*%
%ADD20C,0.000040*%
G54D10*
G1X16591Y7610D3*
G1X16591Y5443D3*
G1X16091Y7610D3*
G1X16091Y5443D3*
G1X17091Y7610D3*
G1X17591Y7610D3*
G1X18091Y7610D3*
G1X19091Y7610D3*
G1X18591Y7610D3*
G1X18091Y5443D3*
G1X17091Y5443D3*
G1X17591Y5443D3*
G1X18591Y5443D3*
G1X19091Y5443D3*
G54D11*
G1X14789Y19930D3*
G1X14789Y13906D3*
G1X14828Y8906D3*
G1X14828Y9930D3*
G1X14789Y12922D3*
G1X14828Y10914D3*
G1X14789Y11938D3*
G1X14789Y16937D3*
G1X14789Y15914D3*
G1X14789Y14930D3*
G1X14789Y17922D3*
G1X14789Y18906D3*
G1X14789Y21938D3*
G1X14789Y20953D3*
G1X18135Y19930D3*
G1X18174Y13906D3*
G1X18174Y8906D3*
G1X18174Y9890D3*
G1X18174Y10914D3*
G1X18174Y11898D3*
G1X18174Y12882D3*
G1X18135Y16937D3*
G1X18135Y14930D3*
G1X18135Y15914D3*
G1X18135Y17922D3*
G1X18135Y18906D3*
G1X18135Y20914D3*
G1X18135Y21938D3*
G54D12*
G1X12666Y8868D3*
G1X12666Y9971D3*
G1X12666Y12136D3*
G1X12666Y11231D3*
G1X12666Y13002D3*
G1X12666Y14813D3*
G1X12666Y17254D3*
G1X12705Y18868D3*
G1X12705Y20837D3*
G1X20189Y13393D3*
G1X20189Y8944D3*
G1X20189Y9810D3*
G1X20189Y10755D3*
G1X20189Y11621D3*
G1X20189Y12526D3*
G1X20189Y14298D3*
G1X20189Y15203D3*
G1X20189Y16109D3*
G1X20189Y17014D3*
G1X20189Y17881D3*
G1X14752Y5443D3*
G1X12705Y19813D3*
G1X12666Y18081D3*
G1X20186Y18629D3*
G54D13*
G1X12905Y10479D3*
G1X13689Y10479D3*
G1X20147Y19454D3*
G54D14*
G1X13335Y11231D3*
G1X13935Y11231D3*
G1X13066Y21864D3*
G1X12466Y21864D3*
G54D15*
G1X19283Y19922D3*
G1X19283Y20522D3*
G1X20108Y19922D3*
G1X20108Y20522D3*
G54D16*
G1X20066Y21231D3*
G1X20066Y21981D3*
G1X19283Y21606D3*
G1X13319Y22492D2*
G54D17*
G1X18932Y22492D1*
G1X16333Y21039D2*
G1X17266Y21972D1*
G1X16183Y19380D2*
G1X18866Y19380D1*
G1X15855Y15876D2*
G1X16853Y14878D1*
G1X16853Y8184D1*
G1X16617Y7949D1*
G1X16853Y6073D2*
G1X17311Y6073D1*
G1X16075Y6850D2*
G1X16853Y6073D1*
G1X14185Y4774D2*
G1X17823Y4774D1*
G1X15028Y7845D2*
G1X15028Y6689D1*
G1X16611Y7356D2*
G1X16611Y7942D1*
G1X16062Y7393D2*
G1X16087Y7368D1*
G1X16087Y7905D1*
G1X15500Y6884D2*
G1X15500Y7805D1*
G1X16075Y7508D2*
G1X16075Y6850D1*
G1X14052Y6216D2*
G1X13709Y5874D1*
G1X13709Y5226D1*
G1X14185Y4774D2*
G1X13709Y5250D1*
G1X14844Y5447D2*
G1X16091Y5447D1*
G1X15028Y6689D2*
G1X14555Y6216D1*
G1X14052Y6216D1*
G1X16592Y5236D2*
G1X16592Y5792D1*
G1X15500Y6884D1*
G1X16563Y5207D2*
G1X16592Y5236D1*
G1X16091Y5207D2*
G1X16091Y5461D1*
G1X12705Y20837D2*
G1X12705Y19853D1*
G1X15658Y13908D2*
G1X16133Y13432D1*
G1X16476Y8294D2*
G1X16476Y14664D1*
G1X13333Y12906D2*
G1X14799Y12906D1*
G1X13399Y11972D2*
G1X14799Y11972D1*
G1X13666Y10506D2*
G1X14133Y10506D1*
G1X12889Y9949D2*
G1X14550Y9949D1*
G1X12705Y8868D2*
G1X14595Y8868D1*
G1X12889Y9949D2*
G1X12889Y10474D1*
G1X12897Y9815D2*
G1X12897Y9949D1*
G1X13266Y12106D2*
G1X13399Y11972D1*
G1X12666Y12106D2*
G1X13266Y12106D1*
G1X13335Y11231D2*
G1X12823Y11231D1*
G1X13266Y12972D2*
G1X13333Y12906D1*
G1X12666Y12972D2*
G1X13266Y12972D1*
G1X16133Y8438D2*
G1X16133Y13432D1*
G1X14162Y10483D2*
G1X14201Y10443D1*
G1X15540Y10443D1*
G1X15776Y10207D1*
G1X15776Y8593D2*
G1X15028Y7845D1*
G1X14595Y8868D2*
G1X14634Y8829D1*
G1X14567Y9933D2*
G1X14550Y9949D1*
G1X15776Y10207D2*
G1X15776Y8593D1*
G1X15500Y7805D2*
G1X16133Y8438D1*
G1X16087Y7905D2*
G1X16476Y8294D1*
G1X13873Y11239D2*
G1X14206Y10906D1*
G1X14206Y10906D2*
G1X14799Y10906D1*
G1X12690Y17249D2*
G1X13905Y17249D1*
G1X13322Y18895D2*
G1X15694Y18895D1*
G1X13256Y16427D2*
G1X13571Y16113D1*
G1X13571Y15798D1*
G1X13925Y15443D1*
G1X13925Y14813D2*
G1X12705Y14813D1*
G1X12311Y16427D2*
G1X11896Y16842D1*
G1X11896Y19774D1*
G1X12311Y16427D2*
G1X13256Y16427D1*
G1X11896Y19774D2*
G1X12469Y19774D1*
G1X12688Y18839D2*
G1X12688Y18087D1*
G1X13266Y18839D2*
G1X13322Y18895D1*
G1X12688Y18839D2*
G1X13266Y18839D1*
G1X15855Y15876D2*
G1X14595Y15876D1*
G1X15658Y13908D2*
G1X14634Y13908D1*
G1X13925Y15443D2*
G1X15697Y15443D1*
G1X14831Y14971D2*
G1X14083Y14971D1*
G1X13925Y14813D1*
G1X15697Y15443D2*
G1X16476Y14664D1*
G1X13905Y17249D2*
G1X14181Y16972D1*
G1X14874Y16972D1*
G1X14841Y17005D1*
G1X15699Y18910D2*
G1X16170Y19380D1*
G1X15617Y18910D2*
G1X15699Y18910D1*
G1X13533Y20906D2*
G1X13599Y20972D1*
G1X15466Y20972D1*
G1X12466Y21506D2*
G1X12466Y21839D1*
G1X12466Y21506D2*
G1X12733Y21239D1*
G1X13533Y20839D2*
G1X13533Y20906D1*
G1X12733Y20839D2*
G1X12733Y21239D1*
G1X12733Y20839D2*
G1X13533Y20839D1*
G1X13066Y22239D2*
G1X13319Y22492D1*
G1X13066Y21839D2*
G1X13066Y22239D1*
G1X15466Y20972D2*
G1X15533Y21039D1*
G1X16333Y21039D1*
G1X17587Y7924D2*
G1X17587Y7451D1*
G1X18059Y5207D2*
G1X18059Y7596D1*
G1X18061Y5444D2*
G1X19041Y5444D1*
G1X17311Y6073D2*
G1X17587Y5798D1*
G1X17587Y5837D2*
G1X17587Y5207D1*
G1X18059Y5168D2*
G1X18061Y5168D1*
G1X18061Y4991D2*
G1X18061Y5444D1*
G1X17834Y4764D2*
G1X18061Y4991D1*
G1X17075Y5443D2*
G1X17075Y4774D1*
G1X19083Y5402D2*
G1X19041Y5444D1*
G1X20625Y21657D2*
G1X20625Y18679D1*
G1X19529Y19922D2*
G1X19529Y19968D1*
G1X19666Y20106D1*
G1X19333Y19906D2*
G1X19533Y19906D1*
G1X18866Y13906D2*
G1X19399Y13372D1*
G1X17212Y19380D2*
G1X17212Y8299D1*
G1X19399Y13372D2*
G1X20199Y13372D1*
G1X19399Y12506D2*
G1X20199Y12506D1*
G1X19399Y11639D2*
G1X20199Y11639D1*
G1X19399Y10772D2*
G1X20199Y10772D1*
G1X18933Y9839D2*
G1X20199Y9839D1*
G1X18933Y8972D2*
G1X20199Y8972D1*
G1X18199Y9906D2*
G1X18866Y9906D1*
G1X18199Y8906D2*
G1X18866Y8906D1*
G1X17212Y8299D2*
G1X17587Y7924D1*
G1X18059Y7596D2*
G1X17587Y7596D1*
G1X18866Y8906D2*
G1X18933Y8972D1*
G1X18866Y9906D2*
G1X18933Y9839D1*
G1X18199Y12906D2*
G1X18866Y12906D1*
G1X18199Y11906D2*
G1X18866Y11906D1*
G1X18199Y10906D2*
G1X19266Y10906D1*
G1X19199Y11839D2*
G1X19399Y11639D1*
G1X19266Y10906D2*
G1X19399Y10772D1*
G1X18866Y11906D2*
G1X18933Y11839D1*
G1X19199Y11839D1*
G1X19066Y12839D2*
G1X19399Y12506D1*
G1X18866Y12906D2*
G1X18933Y12839D1*
G1X19066Y12839D1*
G1X19612Y18634D2*
G1X20195Y18634D1*
G1X19599Y17906D2*
G1X20199Y17906D1*
G1X19399Y17039D2*
G1X20199Y17039D1*
G1X19399Y16106D2*
G1X20199Y16106D1*
G1X19399Y15239D2*
G1X20199Y15239D1*
G1X19399Y14306D2*
G1X20199Y14306D1*
G1X18799Y16972D2*
G1X18866Y16906D1*
G1X18866Y16639D1*
G1X18133Y14906D2*
G1X18799Y14906D1*
G1X18133Y15906D2*
G1X18799Y15906D1*
G1X18199Y13906D2*
G1X18866Y13906D1*
G1X18866Y15772D2*
G1X19399Y15239D1*
G1X18799Y14906D2*
G1X19399Y14306D1*
G1X18866Y16639D2*
G1X19399Y16106D1*
G1X18799Y15906D2*
G1X18866Y15839D1*
G1X18866Y15772D1*
G1X18133Y18906D2*
G1X18799Y18906D1*
G1X18133Y17906D2*
G1X18799Y17906D1*
G1X18133Y16972D2*
G1X18799Y16972D1*
G1X18866Y18639D2*
G1X19599Y17906D1*
G1X19333Y17106D2*
G1X19399Y17039D1*
G1X19333Y17106D2*
G1X19333Y17372D1*
G1X18799Y17906D1*
G1X18799Y18906D2*
G1X18866Y18839D1*
G1X18866Y18639D1*
G1X19612Y18634D2*
G1X18866Y19380D1*
G1X20133Y19372D2*
G1X20133Y19839D1*
G1X19666Y20194D2*
G1X19911Y20439D1*
G1X19911Y20439D2*
G1X20133Y20439D1*
G1X18133Y20906D2*
G1X19266Y20906D1*
G1X17266Y21972D2*
G1X18133Y21972D1*
G1X19266Y20920D2*
G1X19266Y21506D1*
G1X19261Y21521D2*
G1X19261Y22163D1*
G1X19266Y20619D2*
G1X19266Y20906D1*
G1X19666Y20106D2*
G1X19666Y20194D1*
G1X18932Y22492D2*
G1X19261Y22163D1*
G1X20066Y20906D2*
G1X20133Y20839D1*
G1X20066Y20906D2*
G1X20066Y21172D1*
G1X20133Y20439D2*
G1X20133Y20839D1*
G1X20618Y21664D2*
G1X20340Y21943D1*
G1X20194Y21937D2*
G1X20345Y21937D1*
G1X8260Y4162D2*
G54D19*
G1X4323Y4162D1*
G1X6291Y2194D2*
G1X6291Y6131D1*
G1X7767Y4162D2*
G1X7760Y4307D1*
G1X7739Y4450D1*
G1X7704Y4591D1*
G1X7655Y4727D1*
G1X7593Y4858D1*
G1X7519Y4982D1*
G1X7432Y5099D1*
G1X7335Y5206D1*
G1X7228Y5303D1*
G1X7111Y5390D1*
G1X6987Y5464D1*
G1X6856Y5526D1*
G1X6720Y5575D1*
G1X6579Y5610D1*
G1X6436Y5631D1*
G1X6291Y5639D1*
G1X6146Y5631D1*
G1X6003Y5610D1*
G1X5863Y5575D1*
G1X5726Y5526D1*
G1X5595Y5464D1*
G1X5471Y5390D1*
G1X5355Y5303D1*
G1X5247Y5206D1*
G1X5150Y5099D1*
G1X5064Y4982D1*
G1X4989Y4858D1*
G1X4927Y4727D1*
G1X4878Y4591D1*
G1X4843Y4450D1*
G1X4822Y4307D1*
G1X4815Y4162D1*
G1X4822Y4017D1*
G1X4843Y3874D1*
G1X4878Y3734D1*
G1X4927Y3597D1*
G1X4989Y3466D1*
G1X5064Y3342D1*
G1X5150Y3226D1*
G1X5247Y3118D1*
G1X5355Y3021D1*
G1X5471Y2935D1*
G1X5595Y2860D1*
G1X5726Y2798D1*
G1X5863Y2749D1*
G1X6003Y2714D1*
G1X6146Y2693D1*
G1X6291Y2686D1*
G1X6436Y2693D1*
G1X6579Y2714D1*
G1X6720Y2749D1*
G1X6856Y2798D1*
G1X6987Y2860D1*
G1X7111Y2935D1*
G1X7228Y3021D1*
G1X7335Y3118D1*
G1X7432Y3226D1*
G1X7519Y3342D1*
G1X7593Y3466D1*
G1X7655Y3597D1*
G1X7704Y3734D1*
G1X7739Y3874D1*
G1X7760Y4017D1*
G1X7767Y4162D1*
G1X22923Y4162D2*
G1X26860Y4162D1*
G1X24892Y2194D2*
G1X24892Y6131D1*
G1X26368Y4162D2*
G1X26361Y4307D1*
G1X26340Y4450D1*
G1X26304Y4591D1*
G1X26256Y4727D1*
G1X26194Y4858D1*
G1X26119Y4982D1*
G1X26033Y5099D1*
G1X25936Y5206D1*
G1X25828Y5303D1*
G1X25712Y5390D1*
G1X25588Y5464D1*
G1X25457Y5526D1*
G1X25320Y5575D1*
G1X25180Y5610D1*
G1X25036Y5631D1*
G1X24892Y5639D1*
G1X24747Y5631D1*
G1X24604Y5610D1*
G1X24463Y5575D1*
G1X24327Y5526D1*
G1X24196Y5464D1*
G1X24071Y5390D1*
G1X23955Y5303D1*
G1X23848Y5206D1*
G1X23750Y5099D1*
G1X23664Y4982D1*
G1X23590Y4858D1*
G1X23528Y4727D1*
G1X23479Y4591D1*
G1X23444Y4450D1*
G1X23422Y4307D1*
G1X23415Y4162D1*
G1X23422Y4017D1*
G1X23444Y3874D1*
G1X23479Y3734D1*
G1X23528Y3597D1*
G1X23590Y3466D1*
G1X23664Y3342D1*
G1X23750Y3226D1*
G1X23848Y3118D1*
G1X23955Y3021D1*
G1X24071Y2935D1*
G1X24196Y2860D1*
G1X24327Y2798D1*
G1X24463Y2749D1*
G1X24604Y2714D1*
G1X24747Y2693D1*
G1X24892Y2686D1*
G1X25036Y2693D1*
G1X25180Y2714D1*
G1X25320Y2749D1*
G1X25457Y2798D1*
G1X25588Y2860D1*
G1X25712Y2935D1*
G1X25828Y3021D1*
G1X25936Y3118D1*
G1X26033Y3226D1*
G1X26119Y3342D1*
G1X26194Y3466D1*
G1X26256Y3597D1*
G1X26304Y3734D1*
G1X26340Y3874D1*
G1X26361Y4017D1*
G1X26368Y4162D1*
G1X25384Y4162D2*
G1X25381Y4210D1*
G1X25374Y4258D1*
G1X25363Y4305D1*
G1X25346Y4350D1*
G1X25326Y4394D1*
G1X25301Y4436D1*
G1X25272Y4474D1*
G1X25240Y4510D1*
G1X25204Y4543D1*
G1X25165Y4571D1*
G1X25124Y4596D1*
G1X25080Y4617D1*
G1X25034Y4633D1*
G1X24988Y4645D1*
G1X24940Y4652D1*
G1X24892Y4654D1*
G1X24843Y4652D1*
G1X24796Y4645D1*
G1X24749Y4633D1*
G1X24703Y4617D1*
G1X24660Y4596D1*
G1X24618Y4571D1*
G1X24579Y4543D1*
G1X24544Y4510D1*
G1X24511Y4474D1*
G1X24482Y4436D1*
G1X24458Y4394D1*
G1X24437Y4350D1*
G1X24421Y4305D1*
G1X24409Y4258D1*
G1X24402Y4210D1*
G1X24399Y4162D1*
G1X24402Y4114D1*
G1X24409Y4066D1*
G1X24421Y4019D1*
G1X24437Y3974D1*
G1X24458Y3930D1*
G1X24482Y3889D1*
G1X24511Y3850D1*
G1X24544Y3814D1*
G1X24579Y3782D1*
G1X24618Y3753D1*
G1X24660Y3728D1*
G1X24703Y3707D1*
G1X24749Y3691D1*
G1X24796Y3679D1*
G1X24843Y3672D1*
G1X24892Y3670D1*
G1X24940Y3672D1*
G1X24988Y3679D1*
G1X25034Y3691D1*
G1X25080Y3707D1*
G1X25124Y3728D1*
G1X25165Y3753D1*
G1X25204Y3782D1*
G1X25240Y3814D1*
G1X25272Y3850D1*
G1X25301Y3889D1*
G1X25326Y3930D1*
G1X25346Y3974D1*
G1X25363Y4019D1*
G1X25374Y4066D1*
G1X25381Y4114D1*
G1X25384Y4162D1*
G1X8260Y22984D2*
G1X4323Y22984D1*
G1X6291Y21016D2*
G1X6291Y24953D1*
G1X7767Y22984D2*
G1X7760Y23129D1*
G1X7739Y23272D1*
G1X7704Y23413D1*
G1X7655Y23549D1*
G1X7593Y23680D1*
G1X7519Y23804D1*
G1X7432Y23921D1*
G1X7335Y24028D1*
G1X7228Y24126D1*
G1X7111Y24212D1*
G1X6987Y24286D1*
G1X6856Y24348D1*
G1X6720Y24397D1*
G1X6579Y24432D1*
G1X6436Y24454D1*
G1X6291Y24461D1*
G1X6146Y24454D1*
G1X6003Y24432D1*
G1X5863Y24397D1*
G1X5726Y24348D1*
G1X5595Y24286D1*
G1X5471Y24212D1*
G1X5355Y24126D1*
G1X5247Y24028D1*
G1X5150Y23921D1*
G1X5064Y23804D1*
G1X4989Y23680D1*
G1X4927Y23549D1*
G1X4878Y23413D1*
G1X4843Y23272D1*
G1X4822Y23129D1*
G1X4815Y22984D1*
G1X4822Y22840D1*
G1X4843Y22696D1*
G1X4878Y22556D1*
G1X4927Y22419D1*
G1X4989Y22288D1*
G1X5064Y22164D1*
G1X5150Y22048D1*
G1X5247Y21940D1*
G1X5355Y21843D1*
G1X5471Y21757D1*
G1X5595Y21682D1*
G1X5726Y21620D1*
G1X5863Y21571D1*
G1X6003Y21536D1*
G1X6146Y21515D1*
G1X6291Y21508D1*
G1X6436Y21515D1*
G1X6579Y21536D1*
G1X6720Y21571D1*
G1X6856Y21620D1*
G1X6987Y21682D1*
G1X7111Y21757D1*
G1X7228Y21843D1*
G1X7335Y21940D1*
G1X7432Y22048D1*
G1X7519Y22164D1*
G1X7593Y22288D1*
G1X7655Y22419D1*
G1X7704Y22556D1*
G1X7739Y22696D1*
G1X7760Y22840D1*
G1X7767Y22984D1*
G1X7275Y22984D2*
G1X7271Y23081D1*
G1X7256Y23176D1*
G1X7233Y23270D1*
G1X7200Y23361D1*
G1X7159Y23448D1*
G1X7109Y23531D1*
G1X7052Y23609D1*
G1X6987Y23680D1*
G1X6916Y23745D1*
G1X6838Y23803D1*
G1X6755Y23852D1*
G1X6668Y23894D1*
G1X6577Y23926D1*
G1X6483Y23950D1*
G1X6388Y23964D1*
G1X6291Y23969D1*
G1X6195Y23964D1*
G1X6099Y23950D1*
G1X6005Y23926D1*
G1X5914Y23894D1*
G1X5827Y23852D1*
G1X5744Y23803D1*
G1X5667Y23745D1*
G1X5595Y23680D1*
G1X5530Y23609D1*
G1X5473Y23531D1*
G1X5423Y23448D1*
G1X5382Y23361D1*
G1X5349Y23270D1*
G1X5326Y23176D1*
G1X5312Y23081D1*
G1X5307Y22984D1*
G1X5312Y22888D1*
G1X5326Y22792D1*
G1X5349Y22699D1*
G1X5382Y22608D1*
G1X5423Y22520D1*
G1X5473Y22437D1*
G1X5530Y22360D1*
G1X5595Y22288D1*
G1X5667Y22223D1*
G1X5744Y22166D1*
G1X5827Y22116D1*
G1X5914Y22075D1*
G1X6005Y22042D1*
G1X6099Y22019D1*
G1X6195Y22005D1*
G1X6291Y22000D1*
G1X6388Y22005D1*
G1X6483Y22019D1*
G1X6577Y22042D1*
G1X6668Y22075D1*
G1X6755Y22116D1*
G1X6838Y22166D1*
G1X6916Y22223D1*
G1X6987Y22288D1*
G1X7052Y22360D1*
G1X7109Y22437D1*
G1X7159Y22520D1*
G1X7200Y22608D1*
G1X7233Y22699D1*
G1X7256Y22792D1*
G1X7271Y22888D1*
G1X7275Y22984D1*
G1X6783Y22984D2*
G1X6781Y23032D1*
G1X6774Y23080D1*
G1X6762Y23127D1*
G1X6746Y23173D1*
G1X6725Y23216D1*
G1X6700Y23258D1*
G1X6672Y23296D1*
G1X6639Y23332D1*
G1X6603Y23365D1*
G1X6565Y23393D1*
G1X6523Y23418D1*
G1X6479Y23439D1*
G1X6434Y23455D1*
G1X6387Y23467D1*
G1X6339Y23474D1*
G1X6291Y23476D1*
G1X6243Y23474D1*
G1X6195Y23467D1*
G1X6148Y23455D1*
G1X6103Y23439D1*
G1X6059Y23418D1*
G1X6018Y23393D1*
G1X5979Y23365D1*
G1X5943Y23332D1*
G1X5911Y23296D1*
G1X5882Y23258D1*
G1X5857Y23216D1*
G1X5836Y23173D1*
G1X5820Y23127D1*
G1X5808Y23080D1*
G1X5801Y23032D1*
G1X5799Y22984D1*
G1X5801Y22936D1*
G1X5808Y22888D1*
G1X5820Y22841D1*
G1X5836Y22796D1*
G1X5857Y22752D1*
G1X5882Y22711D1*
G1X5911Y22672D1*
G1X5943Y22636D1*
G1X5979Y22604D1*
G1X6018Y22575D1*
G1X6059Y22550D1*
G1X6103Y22530D1*
G1X6148Y22513D1*
G1X6195Y22502D1*
G1X6243Y22495D1*
G1X6291Y22492D1*
G1X6339Y22495D1*
G1X6387Y22502D1*
G1X6434Y22513D1*
G1X6479Y22530D1*
G1X6523Y22550D1*
G1X6565Y22575D1*
G1X6603Y22604D1*
G1X6639Y22636D1*
G1X6672Y22672D1*
G1X6700Y22711D1*
G1X6725Y22752D1*
G1X6746Y22796D1*
G1X6762Y22841D1*
G1X6774Y22888D1*
G1X6781Y22936D1*
G1X6783Y22984D1*
G1X8260Y4162D2*
G1X4323Y4162D1*
G1X6291Y2194D2*
G1X6291Y6131D1*
G1X7767Y4162D2*
G1X7760Y4307D1*
G1X7739Y4450D1*
G1X7704Y4591D1*
G1X7655Y4727D1*
G1X7593Y4858D1*
G1X7519Y4982D1*
G1X7432Y5099D1*
G1X7335Y5206D1*
G1X7228Y5303D1*
G1X7111Y5390D1*
G1X6987Y5464D1*
G1X6856Y5526D1*
G1X6720Y5575D1*
G1X6579Y5610D1*
G1X6436Y5631D1*
G1X6291Y5639D1*
G1X6146Y5631D1*
G1X6003Y5610D1*
G1X5863Y5575D1*
G1X5726Y5526D1*
G1X5595Y5464D1*
G1X5471Y5390D1*
G1X5355Y5303D1*
G1X5247Y5206D1*
G1X5150Y5099D1*
G1X5064Y4982D1*
G1X4989Y4858D1*
G1X4927Y4727D1*
G1X4878Y4591D1*
G1X4843Y4450D1*
G1X4822Y4307D1*
G1X4815Y4162D1*
G1X4822Y4017D1*
G1X4843Y3874D1*
G1X4878Y3734D1*
G1X4927Y3597D1*
G1X4989Y3466D1*
G1X5064Y3342D1*
G1X5150Y3226D1*
G1X5247Y3118D1*
G1X5355Y3021D1*
G1X5471Y2935D1*
G1X5595Y2860D1*
G1X5726Y2798D1*
G1X5863Y2749D1*
G1X6003Y2714D1*
G1X6146Y2693D1*
G1X6291Y2686D1*
G1X6436Y2693D1*
G1X6579Y2714D1*
G1X6720Y2749D1*
G1X6856Y2798D1*
G1X6987Y2860D1*
G1X7111Y2935D1*
G1X7228Y3021D1*
G1X7335Y3118D1*
G1X7432Y3226D1*
G1X7519Y3342D1*
G1X7593Y3466D1*
G1X7655Y3597D1*
G1X7704Y3734D1*
G1X7739Y3874D1*
G1X7760Y4017D1*
G1X7767Y4162D1*
G1X22923Y4162D2*
G1X26860Y4162D1*
G1X24892Y2194D2*
G1X24892Y6131D1*
G1X26368Y4162D2*
G1X26361Y4307D1*
G1X26340Y4450D1*
G1X26304Y4591D1*
G1X26256Y4727D1*
G1X26194Y4858D1*
G1X26119Y4982D1*
G1X26033Y5099D1*
G1X25936Y5206D1*
G1X25828Y5303D1*
G1X25712Y5390D1*
G1X25588Y5464D1*
G1X25457Y5526D1*
G1X25320Y5575D1*
G1X25180Y5610D1*
G1X25036Y5631D1*
G1X24892Y5639D1*
G1X24747Y5631D1*
G1X24604Y5610D1*
G1X24463Y5575D1*
G1X24327Y5526D1*
G1X24196Y5464D1*
G1X24071Y5390D1*
G1X23955Y5303D1*
G1X23848Y5206D1*
G1X23750Y5099D1*
G1X23664Y4982D1*
G1X23590Y4858D1*
G1X23528Y4727D1*
G1X23479Y4591D1*
G1X23444Y4450D1*
G1X23422Y4307D1*
G1X23415Y4162D1*
G1X23422Y4017D1*
G1X23444Y3874D1*
G1X23479Y3734D1*
G1X23528Y3597D1*
G1X23590Y3466D1*
G1X23664Y3342D1*
G1X23750Y3226D1*
G1X23848Y3118D1*
G1X23955Y3021D1*
G1X24071Y2935D1*
G1X24196Y2860D1*
G1X24327Y2798D1*
G1X24463Y2749D1*
G1X24604Y2714D1*
G1X24747Y2693D1*
G1X24892Y2686D1*
G1X25036Y2693D1*
G1X25180Y2714D1*
G1X25320Y2749D1*
G1X25457Y2798D1*
G1X25588Y2860D1*
G1X25712Y2935D1*
G1X25828Y3021D1*
G1X25936Y3118D1*
G1X26033Y3226D1*
G1X26119Y3342D1*
G1X26194Y3466D1*
G1X26256Y3597D1*
G1X26304Y3734D1*
G1X26340Y3874D1*
G1X26361Y4017D1*
G1X26368Y4162D1*
G1X25384Y4162D2*
G1X25381Y4210D1*
G1X25374Y4258D1*
G1X25363Y4305D1*
G1X25346Y4350D1*
G1X25326Y4394D1*
G1X25301Y4436D1*
G1X25272Y4474D1*
G1X25240Y4510D1*
G1X25204Y4543D1*
G1X25165Y4571D1*
G1X25124Y4596D1*
G1X25080Y4617D1*
G1X25034Y4633D1*
G1X24988Y4645D1*
G1X24940Y4652D1*
G1X24892Y4654D1*
G1X24843Y4652D1*
G1X24796Y4645D1*
G1X24749Y4633D1*
G1X24703Y4617D1*
G1X24660Y4596D1*
G1X24618Y4571D1*
G1X24579Y4543D1*
G1X24544Y4510D1*
G1X24511Y4474D1*
G1X24482Y4436D1*
G1X24458Y4394D1*
G1X24437Y4350D1*
G1X24421Y4305D1*
G1X24409Y4258D1*
G1X24402Y4210D1*
G1X24399Y4162D1*
G1X24402Y4114D1*
G1X24409Y4066D1*
G1X24421Y4019D1*
G1X24437Y3974D1*
G1X24458Y3930D1*
G1X24482Y3889D1*
G1X24511Y3850D1*
G1X24544Y3814D1*
G1X24579Y3782D1*
G1X24618Y3753D1*
G1X24660Y3728D1*
G1X24703Y3707D1*
G1X24749Y3691D1*
G1X24796Y3679D1*
G1X24843Y3672D1*
G1X24892Y3670D1*
G1X24940Y3672D1*
G1X24988Y3679D1*
G1X25034Y3691D1*
G1X25080Y3707D1*
G1X25124Y3728D1*
G1X25165Y3753D1*
G1X25204Y3782D1*
G1X25240Y3814D1*
G1X25272Y3850D1*
G1X25301Y3889D1*
G1X25326Y3930D1*
G1X25346Y3974D1*
G1X25363Y4019D1*
G1X25374Y4066D1*
G1X25381Y4114D1*
G1X25384Y4162D1*
G1X8260Y22984D2*
G1X4323Y22984D1*
G1X6291Y21016D2*
G1X6291Y24953D1*
G1X7767Y22984D2*
G1X7760Y23129D1*
G1X7739Y23272D1*
G1X7704Y23413D1*
G1X7655Y23549D1*
G1X7593Y23680D1*
G1X7519Y23804D1*
G1X7432Y23921D1*
G1X7335Y24028D1*
G1X7228Y24126D1*
G1X7111Y24212D1*
G1X6987Y24286D1*
G1X6856Y24348D1*
G1X6720Y24397D1*
G1X6579Y24432D1*
G1X6436Y24454D1*
G1X6291Y24461D1*
G1X6146Y24454D1*
G1X6003Y24432D1*
G1X5863Y24397D1*
G1X5726Y24348D1*
G1X5595Y24286D1*
G1X5471Y24212D1*
G1X5355Y24126D1*
G1X5247Y24028D1*
G1X5150Y23921D1*
G1X5064Y23804D1*
G1X4989Y23680D1*
G1X4927Y23549D1*
G1X4878Y23413D1*
G1X4843Y23272D1*
G1X4822Y23129D1*
G1X4815Y22984D1*
G1X4822Y22840D1*
G1X4843Y22696D1*
G1X4878Y22556D1*
G1X4927Y22419D1*
G1X4989Y22288D1*
G1X5064Y22164D1*
G1X5150Y22048D1*
G1X5247Y21940D1*
G1X5355Y21843D1*
G1X5471Y21757D1*
G1X5595Y21682D1*
G1X5726Y21620D1*
G1X5863Y21571D1*
G1X6003Y21536D1*
G1X6146Y21515D1*
G1X6291Y21508D1*
G1X6436Y21515D1*
G1X6579Y21536D1*
G1X6720Y21571D1*
G1X6856Y21620D1*
G1X6987Y21682D1*
G1X7111Y21757D1*
G1X7228Y21843D1*
G1X7335Y21940D1*
G1X7432Y22048D1*
G1X7519Y22164D1*
G1X7593Y22288D1*
G1X7655Y22419D1*
G1X7704Y22556D1*
G1X7739Y22696D1*
G1X7760Y22840D1*
G1X7767Y22984D1*
G1X7275Y22984D2*
G1X7271Y23081D1*
G1X7256Y23176D1*
G1X7233Y23270D1*
G1X7200Y23361D1*
G1X7159Y23448D1*
G1X7109Y23531D1*
G1X7052Y23609D1*
G1X6987Y23680D1*
G1X6916Y23745D1*
G1X6838Y23803D1*
G1X6755Y23852D1*
G1X6668Y23894D1*
G1X6577Y23926D1*
G1X6483Y23950D1*
G1X6388Y23964D1*
G1X6291Y23969D1*
G1X6195Y23964D1*
G1X6099Y23950D1*
G1X6005Y23926D1*
G1X5914Y23894D1*
G1X5827Y23852D1*
G1X5744Y23803D1*
G1X5667Y23745D1*
G1X5595Y23680D1*
G1X5530Y23609D1*
G1X5473Y23531D1*
G1X5423Y23448D1*
G1X5382Y23361D1*
G1X5349Y23270D1*
G1X5326Y23176D1*
G1X5312Y23081D1*
G1X5307Y22984D1*
G1X5312Y22888D1*
G1X5326Y22792D1*
G1X5349Y22699D1*
G1X5382Y22608D1*
G1X5423Y22520D1*
G1X5473Y22437D1*
G1X5530Y22360D1*
G1X5595Y22288D1*
G1X5667Y22223D1*
G1X5744Y22166D1*
G1X5827Y22116D1*
G1X5914Y22075D1*
G1X6005Y22042D1*
G1X6099Y22019D1*
G1X6195Y22005D1*
G1X6291Y22000D1*
G1X6388Y22005D1*
G1X6483Y22019D1*
G1X6577Y22042D1*
G1X6668Y22075D1*
G1X6755Y22116D1*
G1X6838Y22166D1*
G1X6916Y22223D1*
G1X6987Y22288D1*
G1X7052Y22360D1*
G1X7109Y22437D1*
G1X7159Y22520D1*
G1X7200Y22608D1*
G1X7233Y22699D1*
G1X7256Y22792D1*
G1X7271Y22888D1*
G1X7275Y22984D1*
G1X6783Y22984D2*
G1X6781Y23032D1*
G1X6774Y23080D1*
G1X6762Y23127D1*
G1X6746Y23173D1*
G1X6725Y23216D1*
G1X6700Y23258D1*
G1X6672Y23296D1*
G1X6639Y23332D1*
G1X6603Y23365D1*
G1X6565Y23393D1*
G1X6523Y23418D1*
G1X6479Y23439D1*
G1X6434Y23455D1*
G1X6387Y23467D1*
G1X6339Y23474D1*
G1X6291Y23476D1*
G1X6243Y23474D1*
G1X6195Y23467D1*
G1X6148Y23455D1*
G1X6103Y23439D1*
G1X6059Y23418D1*
G1X6018Y23393D1*
G1X5979Y23365D1*
G1X5943Y23332D1*
G1X5911Y23296D1*
G1X5882Y23258D1*
G1X5857Y23216D1*
G1X5836Y23173D1*
G1X5820Y23127D1*
G1X5808Y23080D1*
G1X5801Y23032D1*
G1X5799Y22984D1*
G1X5801Y22936D1*
G1X5808Y22888D1*
G1X5820Y22841D1*
G1X5836Y22796D1*
G1X5857Y22752D1*
G1X5882Y22711D1*
G1X5911Y22672D1*
G1X5943Y22636D1*
G1X5979Y22604D1*
G1X6018Y22575D1*
G1X6059Y22550D1*
G1X6103Y22530D1*
G1X6148Y22513D1*
G1X6195Y22502D1*
G1X6243Y22495D1*
G1X6291Y22492D1*
G1X6339Y22495D1*
G1X6387Y22502D1*
G1X6434Y22513D1*
G1X6479Y22530D1*
G1X6523Y22550D1*
G1X6565Y22575D1*
G1X6603Y22604D1*
G1X6639Y22636D1*
G1X6672Y22672D1*
G1X6700Y22711D1*
G1X6725Y22752D1*
G1X6746Y22796D1*
G1X6762Y22841D1*
G1X6774Y22888D1*
G1X6781Y22936D1*
G1X6783Y22984D1*
G1X11642Y22884D2*
G54D20*
G1X11642Y4262D1*
G1X20855Y4262D1*
G1X20855Y22884D1*
G1X11642Y22884D1*
M2*
