%FSLAX24Y24*%
%MOIN*%
G70*
G01*
G75*
%ADD10C,0.0700*%
%ADD11R,0.0600X0.0640*%
%ADD12C,0.1000*%
%ADD13R,0.0512X0.0551*%
%ADD14O,0.1200X0.0250*%
%ADD15R,0.1200X0.0250*%
%ADD16C,0.0200*%
%ADD17C,0.0100*%
%ADD18C,0.0079*%
D17*
X104325Y79350D02*
X104362Y79262D01*
X104450Y79225D01*
X104538Y79262D01*
X104575Y79350D01*
X103300Y83900D02*
Y84500D01*
Y83900D02*
X103600Y84200D01*
X103300Y84500D02*
X103600Y84200D01*
Y83900D02*
Y84500D01*
X105550Y83900D02*
Y84500D01*
Y83900D02*
X105850Y84200D01*
X105550Y84500D02*
X105850Y84200D01*
Y83900D02*
Y84500D01*
X103300Y82900D02*
Y83500D01*
Y82900D02*
X103600Y83200D01*
X103300Y83500D02*
X103600Y83200D01*
Y82900D02*
Y83500D01*
X105550Y82900D02*
Y83500D01*
Y82900D02*
X105850Y83200D01*
X105550Y83500D02*
X105850Y83200D01*
Y82900D02*
Y83500D01*
X103300Y81900D02*
Y82500D01*
Y81900D02*
X103600Y82200D01*
X103300Y82500D02*
X103600Y82200D01*
Y81900D02*
Y82500D01*
X105550Y81900D02*
Y82500D01*
Y81900D02*
X105850Y82200D01*
X105550Y82500D02*
X105850Y82200D01*
Y81900D02*
Y82500D01*
X103300Y80900D02*
Y81500D01*
Y80900D02*
X103600Y81200D01*
X103300Y81500D02*
X103600Y81200D01*
Y80900D02*
Y81500D01*
X105550Y80900D02*
Y81500D01*
Y80900D02*
X105850Y81200D01*
X105550Y81500D02*
X105850Y81200D01*
Y80900D02*
Y81500D01*
X104050Y77350D02*
Y79350D01*
Y77350D02*
X104850D01*
Y79350D01*
X104575D02*
X104850D01*
X104050D02*
X104325D01*
X102100Y77900D02*
Y77400D01*
Y77567D01*
X102433Y77900D01*
X102183Y77650D01*
X102433Y77400D01*
Y80500D02*
X102267D01*
X102350D01*
Y80083D01*
X102267Y80000D01*
X102183D01*
X102100Y80083D01*
X106433Y80617D02*
X106350Y80700D01*
X106183D01*
X106100Y80617D01*
Y80283D01*
X106183Y80200D01*
X106350D01*
X106433Y80283D01*
Y80450D01*
X106267D01*
X106600Y80200D02*
Y80700D01*
X106933Y80200D01*
Y80700D01*
X107100D02*
Y80200D01*
X107350D01*
X107433Y80283D01*
Y80617D01*
X107350Y80700D01*
X107100D01*
X101600Y78650D02*
X101933D01*
X101767Y78817D02*
Y78483D01*
X102433Y78900D02*
X102100D01*
Y78650D01*
X102266Y78733D01*
X102350D01*
X102433Y78650D01*
Y78483D01*
X102350Y78400D01*
X102183D01*
X102100Y78483D01*
D18*
X102760Y80612D02*
X104492D01*
X102760Y79588D02*
Y80612D01*
Y79588D02*
X104492D01*
Y80612D01*
M02*
