%FSLAX24Y24*%
%MOIN*%
G70*
G01*
G75*
%ADD10C,0.0700*%
%ADD11R,0.0600X0.0640*%
%ADD12C,0.1000*%
%ADD13R,0.0512X0.0551*%
%ADD14O,0.1200X0.0250*%
%ADD15R,0.1200X0.0250*%
%ADD16C,0.0200*%
%ADD17C,0.0100*%
D10*
X101600Y80200D02*
D03*
Y84200D02*
D03*
Y83200D02*
D03*
Y82200D02*
D03*
Y81200D02*
D03*
Y79200D02*
D03*
Y77600D02*
D03*
D11*
X102700Y84200D02*
D03*
X104100D02*
D03*
X104950D02*
D03*
X106350D02*
D03*
X102700Y83200D02*
D03*
X104100D02*
D03*
X104950D02*
D03*
X106350D02*
D03*
X102700Y82200D02*
D03*
X104100D02*
D03*
X104950D02*
D03*
X106350D02*
D03*
X102700Y81200D02*
D03*
X104100D02*
D03*
X104950D02*
D03*
X106350D02*
D03*
D12*
X107200Y79700D02*
D03*
D13*
X104000Y80100D02*
D03*
X103252D02*
D03*
D14*
X105700Y77600D02*
D03*
Y78100D02*
D03*
Y78600D02*
D03*
Y79100D02*
D03*
X103200Y77600D02*
D03*
Y78100D02*
D03*
Y78600D02*
D03*
D15*
Y79100D02*
D03*
D16*
X104100Y82200D02*
X104950D01*
X104100Y84200D02*
X104950D01*
X104100Y83200D02*
X104950D01*
X104100Y81200D02*
X104950D01*
X106350Y84200D02*
X107200D01*
X106350Y83200D02*
X107200D01*
X106350Y82200D02*
X107200D01*
X106350Y81200D02*
X107200D01*
Y84200D01*
X101700D02*
X102700D01*
X101700Y83200D02*
X102700D01*
X101700Y82200D02*
X102700D01*
X101700Y81200D02*
X102700D01*
X107200Y79700D02*
Y81200D01*
X101600Y80200D02*
X103152D01*
X105000Y77600D02*
X105700D01*
X104100Y78500D02*
X105000Y77600D01*
X104100Y78500D02*
Y80100D01*
X101600Y77600D02*
X103200D01*
X105700Y79100D02*
Y79400D01*
X106000Y79700D01*
X107200D01*
X101700Y79100D02*
X103200D01*
X101600Y79200D02*
X101700Y79100D01*
D17*
X106800Y77600D02*
X106900D01*
Y77500D01*
Y77700D01*
Y77600D01*
X107200D01*
X107300Y77700D01*
Y78000D02*
X106700D01*
X106900Y78200D01*
X106700Y78400D01*
X107300D01*
X106800Y78700D02*
X106900D01*
Y78600D01*
Y78800D01*
Y78700D01*
X107200D01*
X107300Y78800D01*
M02*
